<?xml version="1.0" encoding="utf-8"?>
<!DOCTYPE svg PUBLIC "-//W3C//DTD SVG 1.1//EN" "http://www.w3.org/Graphics/SVG/1.1/DTD/svg11.dtd">
<svg version="1.1" id="graph" xmlns="http://www.w3.org/2000/svg" xmlns:xlink="http://www.w3.org/1999/xlink" x="0px" y="0px"
	 width="600px" height="600px" viewBox="0 0 600 600" enable-background="new 0 0 600 600" xml:space="preserve">
<path fill="#EEEEEE" d="M600,64.7L569.4,115L581.9,0h-0.5l-12.5,115.2L442.2,21.9L541.9,0h-2.3l-97.3,21.4L462,0h-0.7l-19.5,21.2
	L441.3,0h-0.5l0.6,21.5L387,0h-1.4L441,21.9L307.4,89.6L318.9,0h-0.5L307,89.2L261.6,0.9l2.1-0.9h-1.3l-1.2,0.5l-1-0.5h-1.1l1.6,0.8
	L152.6,59.4L164.8,0h-0.5l-12.2,59.3L102,0h-0.7l50.4,59.7L0,106v0.5l151.5-46.1l-85.6,94.8L0,128.1v0.5l65.6,26.9l-42.8,92.3
	L0,191.5v1.3l22.4,55.4H0v0.5h22.4L0,303.1v1.3l22.9-55.5l83.6,85.2L0,368.6v0.5l106.6-34.5l-5.1,91.9L0,389.8v0.5l101,36.6
	l-35.1,15.4L0,471.1v0.5l101.3-44.4l-9,32.8l-9.4,34.4l-17.2,62.6L0,510.1v0.6l65.4,46.8L0,583.6v0.6l65.3-26.1L39.6,600h0.6
	l25.7-42l35.5,42h0.7l-35.6-42.2h0.3l106.3,0l-8.7,42.2h0.5l8.7-42.1l85.6,42.1h1.1l-85.5-42L321,574.7L262.4,600h1.3l58-25l-3.2,25
	h0.5l3.2-25l63.5,25h1.4l-64.5-25.5l115.4-78.1l2.9,103.5h0.5l-2.9-103.8l127.2-9.7L461.3,600h0.7l104-113.2l16.3,103.8l-42.7,9.4
	h2.3l40.4-8.9l-1,8.9h0.5l1-9l17.1-6.9v-0.6l-17.2,6.9l-16.3-103.7l33.5,23.9v-0.6l-33.3-23.8l33.3-14.6v-0.5l-33.6,14.7l2.9-106.6
	l30.7,11.1v-0.5l-30.2-10.9l30.2-9.8v-0.5l-30.5,9.9l30.5-74v-1.3l-7.7,18.7h0l-23.3,56.4l-23.3-56.4l-30.1-73H600v-0.5h-84.3
	l53.3-131.9l30.9,76.5v-1.3l-30.5-75.4l30.5,12.5v-0.5l-30.2-12.4l30.2-9.2V106l-30.1,9.2L600,65.6V64.7z M568.5,115.6l-115.2,39.5
	L441.9,22.4L568.5,115.6z M199.4,315.7l-68.9-106.9l114.5-83L199.4,315.7z M245.5,125.9l54.4,115l-99.9,74.8L245.5,125.9z
	 M199.1,316.1l-29,5.6h0L107.2,334l1-5.5l1.2-6.7l20.9-112.4L199.1,316.1z M199.5,316.8l59.8,123.7l-157-13.8L199.5,316.8z
	 M199.8,316.4l100-74.8l-16.3,80.2l-24,118.2L199.8,316.4z M268.4,398.8l15.6-77l16.2-79.8l24.7,79.8l7.3,23.7l25.1,81.2L260,440.5
	L268.4,398.8z M325.4,321.8l-24.8-80.3L480,321.6l-0.2,0.2h0l-122,104.7L325.4,321.8z M479.6,320.8l-65.9-29.4l-112.6-50.3
	L405,228.2L479.6,320.8z M307.9,90.6l144.8,64.9l-47.6,72L307.9,90.6z M405.7,228.3L515,248.7L480.4,321L405.7,228.3z M405.5,227.8
	l47.6-71.9l61.8,92.3L405.5,227.8z M441.4,22.2L452.8,155L307.7,90L441.4,22.2z M307.3,90.8l97.3,137l-104.2,13L307.3,90.8z
	 M300,240l-54.3-114.8l61.1-34.8L300,240z M261.4,1.6l45.4,88.3l-61.1,34.7L261.4,1.6z M260.9,1.2l-15.7,123.4l-92.5-64.8L260.9,1.2
	z M152.4,60.3l92.5,64.8l-36.2,26.2l-78.2,56.8L152.4,60.3z M151.9,60.6L130,208.2l-16.3-13.5l-47.5-39.3L151.9,60.6z M66,155.8
	l63.7,52.8L23.3,248.1L66,155.8z M94.9,321.8L94.9,321.8l-71.7-73.2l106.6-39.5l-3.6,19.3L109,321.8l-2.2,12L94.9,321.8z
	 M107.1,334.5l65.6-12.7l26.1-5.1l-4.5,5.1h0L102,426.2L107.1,334.5z M66.2,557.3l26.7-97.2l8.9-32.5l17.8,32.5l53.3,97.2H66.2z
	 M173.3,557.1l-53.2-97l-18-32.9L243,439.6l16.2,1.4L173.3,557.1z M173.8,557.3l71.9-97.3h0l13.9-18.8l7.9,16.9l54.1,116.2
	L173.8,557.3z M321.9,573.8L260,441l97.3-13.8L321.9,573.8z M322.3,574l35.5-146.7l38.1,32.7h0l41.8,35.9L322.3,574z M437.9,495.5
	l-41.3-35.5l-38.6-33.2l122-104.7L437.9,495.5z M438.4,495.7l8.7-35.6l33.5-137.9l71.7,137.9l13.5,25.9L438.4,495.7z M566.6,460.1
	l-0.7,25.2l-13.1-25.2h0L515.3,388l-34.2-65.8l43.8,28.4l43.8,28.4L566.6,460.1z M568.5,378.2l-87.2-56.5l-0.6-0.4l34.6-72.3
	L568.5,378.2z M515.3,248l-61.8-92.4l115.2-39.5L515.3,248z"/>
</svg>
