<?xml version="1.0" encoding="utf-8"?>
<!DOCTYPE svg PUBLIC "-//W3C//DTD SVG 1.1//EN" "http://www.w3.org/Graphics/SVG/1.1/DTD/svg11.dtd">
<svg xmlns:ev="http://www.w3.org/2001/xml-events" xmlns="http://www.w3.org/2000/svg" xmlns:xlink="http://www.w3.org/1999/xlink" version="1.1" id="graph" x="0px" y="0px" width="600px" height="600px" viewBox="0 0 600 600" enable-background="new 0 0 600 600" xml:space="preserve">
  <path fill="#EEEEEE" d="M600 64.7L569.4 115 581.9 0h-0.5l-12.5 115.2L442.2 21.9 541.9 0h-2.3l-97.3 21.4L462 0h-0.7l-19.5 21.2L441.3 0h-0.5l0.6 21.5L387 0h-1.4L441 21.9 307.4 89.6 318.9 0h-0.5L307 89.2 261.6 0.9l2.1-0.9h-1.3l-1.2 0.5 -1-0.5h-1.1l1.6 0.8L152.6 59.4 164.8 0h-0.5l-12.2 59.3L102 0h-0.7l50.4 59.7L0 106v0.5l151.5-46.1 -85.6 94.8L0 128.1v0.5l65.6 26.9 -42.8 92.3L0 191.5v1.3l22.4 55.4H0v0.5h22.4L0 303.1v1.3l22.9-55.5 83.6 85.2L0 368.6v0.5l106.6-34.5 -5.1 91.9L0 389.8v0.5l101 36.6 -35.1 15.4L0 471.1v0.5l101.3-44.4 -9 32.8 -9.4 34.4L65.7 557 0 510.1v0.6l65.4 46.8L0 583.6v0.6l65.3-26.1L39.6 600h0.6l25.7-42 35.5 42h0.7l-35.6-42.2h0.3 106.3l-8.7 42.2h0.5l8.7-42.1 85.6 42.1h1.1l-85.5-42L321 574.7 262.4 600h1.3l58-25 -3.2 25h0.5l3.2-25 63.5 25h1.4l-64.5-25.5L438 496.4l2.9 103.5h0.5l-2.9-103.8 127.2-9.7L461.3 600h0.7l104-113.2 16.3 103.8 -42.7 9.4h2.3l40.4-8.9 -1 8.9h0.5l1-9 17.1-6.9v-0.6l-17.2 6.9 -16.3-103.7 33.5 23.9V510l-33.3-23.8 33.3-14.6v-0.5l-33.6 14.7 2.9-106.6 30.7 11.1v-0.5l-30.2-10.9 30.2-9.8v-0.5l-30.5 9.9 30.5-74v-1.3l-7.7 18.7 0 0 -23.3 56.4 -23.3-56.4 -30.1-73H600v-0.5h-84.3L569 116.5l30.9 76.5v-1.3l-30.5-75.4 30.5 12.5v-0.5l-30.2-12.4 30.2-9.2V106l-30.1 9.2L600 65.6V64.7zM568.5 115.6l-115.2 39.5L441.9 22.4 568.5 115.6zM199.4 315.7l-68.9-106.9 114.5-83L199.4 315.7zM245.5 125.9l54.4 115L200 315.7 245.5 125.9zM199.1 316.1l-29 5.6 0 0L107.2 334l1-5.5 1.2-6.7 20.9-112.4L199.1 316.1zM199.5 316.8l59.8 123.7 -157-13.8L199.5 316.8zM199.8 316.4l100-74.8 -16.3 80.2 -24 118.2L199.8 316.4zM268.4 398.8l15.6-77 16.2-79.8 24.7 79.8 7.3 23.7 25.1 81.2L260 440.5 268.4 398.8zM325.4 321.8l-24.8-80.3L480 321.6l-0.2 0.2 0 0 -122 104.7L325.4 321.8zM479.6 320.8l-65.9-29.4 -112.6-50.3L405 228.2 479.6 320.8zM307.9 90.6l144.8 64.9 -47.6 72L307.9 90.6zM405.7 228.3L515 248.7 480.4 321 405.7 228.3zM405.5 227.8l47.6-71.9 61.8 92.3L405.5 227.8zM441.4 22.2L452.8 155 307.7 90 441.4 22.2zM307.3 90.8l97.3 137 -104.2 13L307.3 90.8zM300 240l-54.3-114.8 61.1-34.8L300 240zM261.4 1.6l45.4 88.3 -61.1 34.7L261.4 1.6zM260.9 1.2l-15.7 123.4 -92.5-64.8L260.9 1.2zM152.4 60.3l92.5 64.8 -36.2 26.2 -78.2 56.8L152.4 60.3zM151.9 60.6L130 208.2l-16.3-13.5 -47.5-39.3L151.9 60.6zM66 155.8l63.7 52.8L23.3 248.1 66 155.8zM94.9 321.8L94.9 321.8l-71.7-73.2 106.6-39.5 -3.6 19.3L109 321.8l-2.2 12L94.9 321.8zM107.1 334.5l65.6-12.7 26.1-5.1 -4.5 5.1 0 0L102 426.2 107.1 334.5zM66.2 557.3l26.7-97.2 8.9-32.5 17.8 32.5 53.3 97.2H66.2zM173.3 557.1l-53.2-97 -18-32.9L243 439.6l16.2 1.4L173.3 557.1zM173.8 557.3l71.9-97.3 0 0 13.9-18.8 7.9 16.9 54.1 116.2L173.8 557.3zM321.9 573.8L260 441l97.3-13.8L321.9 573.8zM322.3 574l35.5-146.7 38.1 32.7 0 0 41.8 35.9L322.3 574zM437.9 495.5L396.6 460 358 426.8l122-104.7L437.9 495.5zM438.4 495.7l8.7-35.6 33.5-137.9 71.7 137.9 13.5 25.9L438.4 495.7zM566.6 460.1l-0.7 25.2 -13.1-25.2 0 0L515.3 388l-34.2-65.8 43.8 28.4 43.8 28.4L566.6 460.1zM568.5 378.2l-87.2-56.5 -0.6-0.4 34.6-72.3L568.5 378.2zM515.3 248l-61.8-92.4 115.2-39.5L515.3 248z"/>
</svg>
